<svg xmlns="http://www.w3.org/2000/svg"><symbol id="icon-download-icon" viewBox="-311 233 16 15"><title>Group</title><g opacity=".477"><path d="M-303.5 233.8h1v9h-1z"/><path d="M-300.218 239.202l.72.695-3.473 3.597-.72-.694z"/><path d="M-305.753 239.143l3.473 3.597-.72.695-3.472-3.597z"/><path d="M-295.9 247.2h-14.5v-5.8h1v4.8h12.5v-5h1z"/></g></symbol><symbol id="icon-line-logo" viewBox="0 0 1021.81 98.814"><path d="M16.997 24.913c16.623.297 19.61.195 35.64 0v4.276c-14.034-.394-15.932-.394-15.932-.394s.203 3.687.394 44.899h-4.572c.5-25.483.398-44.899.398-44.899s-2.289.102-15.928.394v-4.276zm66.963 0l-.195 22.797h26.882l-.204-22.797h4.382c-.593 23.492 0 48.781 0 48.781h-4.382l.204-22.301H83.765l.195 22.301h-4.382s.703-25.288 0-48.781h4.382zm553.889 8.364c-3.678-3.292-8.559-5.178-15.428-5.178-11.848 0-20.208 9.161-20.208 20.916v.085c0 12.644 7.068 21.602 20.115 21.602 14.924 0 19.305-11.652 19.305-18.513 0 0-6.271 0-12.945.306l-.495-4.089h17.42v3.39c0 10.352-6.466 22.806-23.191 22.806-15.327 0-24.488-11.568-24.488-25.302v-.2c0-13.14 9.551-24.886 24.691-24.886 7.36 0 12.936 2.191 17.517 5.674l-2.293 3.389zm53.531-8.66c9.555 24.399 20.708 49.077 20.708 49.077h-4.881l-6.475-15.517h-22.788l-6.572 15.517h-4.678s10.945-24.195 20.805-49.077h3.881zm8.259 29.864L689.287 29.48l-10.059 25.001h20.411zm228.351-3.089s6.271 9.258 15.628 22.301h-5.483c-5.763-9.068-8.949-14.237-14.225-21.899l4.08-.402zm-414.448.505l-18.911-26.984h4.979l16.026 23.39 16.021-23.39h4.788l-18.92 26.984c0 5.864 0 13.432.195 21.797h-4.483c.208-7.967.305-15.331.305-21.797M349.574 24.913s-.593 19.216.102 48.781h-4.585c.102-27.179.398-37.026.398-42.412l-.19.292-16.132 22.208h-2.686l-16.034-22.208c0 2.89.212 10.458.398 42.119h-4.568c.686-29.564.085-48.781.085-48.781h3.983l17.627 24.102 17.424-24.102h4.178zm448.765 0s-.504 20.805-.106 45.094c.106 0 12.949 0 25.094-.5l-.407 4.186h-29.068c.504-25.483.504-38.924.102-48.781h4.385zm-363.116 0c16.632.297 19.615.195 35.644 0v4.276c-14.038-.394-15.932-.394-15.932-.394s.207 3.687.402 44.899h-4.58c.496-25.483.402-44.899.402-44.899s-2.301.102-15.936.394v-4.276zm445.41 0l-.297 4.382c-12.343-.597-26.585-.695-26.585-.695v19.11s13.737.195 22.805 0l-.199 3.979c-7.275-.296-22.606-.296-22.606-.296v18.615s17.525 0 26.678-.593l.203 4.28H849.47s.695-25.288 0-48.781h31.163zm27.844 0h14.331c10.759 0 18.322 4.568 18.322 13.937v.199c0 9.856-9.457 12.932-19.216 12.932h-9.161l.195 21.712h-4.47c.799-30.958-.001-48.78-.001-48.78m13.64 23.39c9.055 0 14.932-2.788 14.932-9.254v-.199c0-7.674-5.775-10.25-14.542-10.25h-9.755v19.704h9.365zm-177.511-23.39s-.5 20.805-.098 45.094c.098 0 12.945 0 25.085-.5l-.398 4.186h-29.072c.5-25.483.5-38.924.106-48.781h4.377zm237.308 26.984l-18.92-26.984h4.983l16.03 23.39 16.026-23.39h4.78l-18.916 26.984c0 5.864 0 13.432.203 21.797h-4.483c.195-7.967.297-15.331.297-21.797m-601.81-26.984h14.335c10.754 0 18.322 4.568 18.322 13.937v.199c0 9.856-9.466 12.932-19.225 12.932h-9.153l.199 21.712h-4.479c.802-30.958.001-48.78.001-48.78m13.64 23.39c9.059 0 14.941-2.788 14.941-9.254v-.199c0-7.674-5.78-10.25-14.551-10.25h-9.75v19.704h9.36zm-117.705-23.39l-.297 4.382c-12.348-.597-26.585-.695-26.585-.695v19.11s13.737.195 22.788 0l-.187 3.979c-7.271-.296-22.602-.296-22.602-.296v18.615s17.517 0 26.683-.593l.199 4.28h-31.162s.695-25.288 0-48.781h31.163zm-97.532 0l-.301 4.382c-12.348-.597-26.581-.695-26.581-.695v19.11s13.742.195 22.801 0l-.199 3.979c-7.276-.296-22.602-.296-22.602-.296v18.615s17.522 0 26.683-.593l.199 4.28h-31.166s.695-25.288 0-48.781h31.166z"/></symbol><symbol id="icon-square-logo" viewBox="0 0 391.18 391.18"><path d="M10.33 304.319c.094-5.209.062-6.145 0-11.166h1.216c-.125 4.398-.125 5.053-.125 5.053s1.279-.062 14.192-.125v1.31c-7.985-.156-14.192-.125-14.192-.125s0 .78.094 5.053H10.33zM10.33 276.953l7.205.062v-8.546l-7.205.062v-1.248c7.361.187 15.284 0 15.284 0v1.248l-6.956-.062v8.546l6.956-.062v1.248s-7.923-.218-15.284 0v-1.248zM10.33 241.567l1.248.094c-.187 3.868-.156 8.39-.156 8.39h6.113s-.031-4.367-.094-7.205l1.279.062c-.094 2.277-.094 7.143-.094 7.143h5.926s.031-5.552-.156-8.422l1.217-.062v9.701s-7.923-.218-15.284 0v-9.701zM321.428 372.858l-5.59-7.89h1.368l4.775 6.987 4.775-6.987h1.31l-5.59 7.89c0 1.718 0 3.93.058 6.376h-1.194c.059-2.329.088-4.484.088-6.376zm-31.372-7.89c4.862.087 5.736.058 10.423 0v1.136c-4.105-.117-4.716-.117-4.716-.117s.029 5.823.146 13.247h-1.252c.146-7.453.117-13.247.117-13.247s-.728 0-4.717.087v-1.106zm-40.139 0s-.175 5.619.029 14.266h-1.223c.029-7.948.116-10.889.116-12.461l-.058.087-4.716 6.434h-.786l-4.687-6.434c0 .844.058 3.115.117 12.373h-1.223c.204-8.647.029-14.266.029-14.266h1.048l5.153 7.046 5.095-7.046h1.106zm-29.206 0l-.087 1.165c-3.61-.175-7.832-.146-7.832-.146v5.706s4.076-.029 6.725-.087l-.058 1.194c-2.125-.088-6.667-.088-6.667-.088v5.532s5.182.029 7.861-.146l.058 1.135h-9.054s.204-7.395 0-14.266h9.054zm45.631 0h4.076c3.144 0 5.299 1.339 5.299 4.076v.058c0 2.882-2.591 3.785-5.561 3.785h-2.679l.058 6.347h-1.194c.234-9.054.001-14.266.001-14.266zm3.872 6.842c2.649 0 4.338-.699 4.338-2.708v-.058c0-2.242-1.66-3.028-4.222-3.028h-2.853v5.794h2.737zM380.212 79.984c.967-1.084 1.67-2.52 1.67-4.542 0-3.487-2.872-6.124-6.329-6.124h-.029c-3.721 0-6.534 2.256-6.534 6.095 0 4.395 3.34 5.714 5.743 5.714 0 0 0-1.875-.088-3.839l1.084-.147v5.069h-.996c-3.047 0-6.71-1.846-6.71-6.769 0-4.512 3.399-7.208 7.443-7.208h.059c3.868 0 7.325 2.813 7.325 7.267 0 2.168-.645 3.809-1.67 5.157l-.968-.673zm2.521 23.855c-7.179 2.813-14.446 6.095-14.446 6.095v-1.319l4.659-1.846v-6.915l-4.659-1.905v-1.26s7.12 3.223 14.446 6.124v1.026zm-8.791 2.579l7.472-3.135-7.472-3.047v6.182zm8.703 21.072s-6.241-.147-13.391-.029c0 .029 0 3.663.088 7.501l-1.055-.117v-8.556c7.501.147 11.457.147 14.358.029v1.172zm-7.795 76.686s-2.93 1.905-6.564 4.659v-1.553c2.96-1.934 3.018-1.817 6.446-4.278l.118 1.172zm7.795-53.596s-6.241-.147-13.391-.029c0 .029 0 3.663.088 7.501l-1.055-.117v-8.556c7.501.147 11.457.147 14.358.029v1.172zm-7.941 76.481l7.941-5.626v1.377l-7.033 4.806 7.033 4.806v1.319l-7.941-5.626c-1.729 0-3.956 0-6.417.059v-1.201c2.344.057 4.512.086 6.417.086zm7.941-44.48l-1.172-.088c.176-3.633.147-7.882.147-7.882h-5.743s.029 4.102.088 6.769l-1.201-.059c.088-2.139.088-6.71.088-6.71h-5.567s-.029 5.216.147 7.911l-1.143.059v-9.113s7.443.205 14.358 0v9.113zm0 15.823v4.102c0 3.165-1.348 5.333-4.102 5.333h-.058c-2.901 0-3.809-2.608-3.809-5.597v-2.696l-6.388.059v-1.201c9.112.234 14.357 0 14.357 0zm-6.886 3.897c0 2.666.703 4.366 2.725 4.366h.058c2.256 0 3.047-1.67 3.047-4.249v-2.872h-5.831v2.755z"/><path d="M380.212 79.984c.967-1.084 1.67-2.52 1.67-4.542 0-3.487-2.872-6.124-6.329-6.124h-.029c-3.721 0-6.534 2.256-6.534 6.095 0 4.395 3.34 5.714 5.743 5.714 0 0 0-1.875-.088-3.839l1.084-.147v5.069h-.996c-3.047 0-6.71-1.846-6.71-6.769 0-4.512 3.399-7.208 7.443-7.208h.059c3.868 0 7.325 2.813 7.325 7.267 0 2.168-.645 3.809-1.67 5.157l-.968-.673zm2.521 23.855c-7.179 2.813-14.446 6.095-14.446 6.095v-1.319l4.659-1.846v-6.915l-4.659-1.905v-1.26s7.12 3.223 14.446 6.124v1.026zm-8.791 2.579l7.472-3.135-7.472-3.047v6.182zm8.703 21.072s-6.241-.147-13.391-.029c0 .029 0 3.663.088 7.501l-1.055-.117v-8.556c7.501.147 11.457.147 14.358.029v1.172zm-7.795 76.686s-2.93 1.905-6.564 4.659v-1.553c2.96-1.934 3.018-1.817 6.446-4.278l.118 1.172zm7.795-53.596s-6.241-.147-13.391-.029c0 .029 0 3.663.088 7.501l-1.055-.117v-8.556c7.501.147 11.457.147 14.358.029v1.172zm-7.941 76.481l7.941-5.626v1.377l-7.033 4.806 7.033 4.806v1.319l-7.941-5.626c-1.729 0-3.956 0-6.417.059v-1.201c2.344.057 4.512.086 6.417.086zm7.941-44.48l-1.172-.088c.176-3.633.147-7.882.147-7.882h-5.743s.029 4.102.088 6.769l-1.201-.059c.088-2.139.088-6.71.088-6.71h-5.567s-.029 5.216.147 7.911l-1.143.059v-9.113s7.443.205 14.358 0v9.113zm0 15.823v4.102c0 3.165-1.348 5.333-4.102 5.333h-.058c-2.901 0-3.809-2.608-3.809-5.597v-2.696l-6.388.059v-1.201c9.112.234 14.357 0 14.357 0zm-6.886 3.897c0 2.666.703 4.366 2.725 4.366h.058c2.256 0 3.047-1.67 3.047-4.249v-2.872h-5.831v2.755zM195.406 372.601H16.472v-52.867h1v51.867h177.934zM374.339 372.601h-34.385v-1h33.385V246.418h1zM17.472 224.734h-1v-210h357.867v35.215h-1V15.734H17.472z"/></symbol></svg>