<?xml version="1.0" standalone="no"?>
<!DOCTYPE svg PUBLIC "-//W3C//DTD SVG 20010904//EN"
 "http://www.w3.org/TR/2001/REC-SVG-20010904/DTD/svg10.dtd">
<svg version="1.0" xmlns="http://www.w3.org/2000/svg"
 width="128.000000pt" height="128.000000pt" viewBox="0 0 128.000000 128.000000"
 preserveAspectRatio="xMidYMid meet">
<metadata>
Created by potrace 1.11, written by Peter Selinger 2001-2013
</metadata>
<g transform="translate(0.000000,128.000000) scale(0.100000,-0.100000)"
fill="#000000" stroke="none">
<path d="M0 640 l0 -640 640 0 640 0 0 640 0 640 -640 0 -640 0 0 -640z m1108
438 l-2 -53 -3 48 -4 47 -469 0 -470 0 -3 -277 -2 -278 -3 283 -2 282 480 0
480 0 -2 -52z m2 -743 l0 -175 -47 2 -48 1 43 4 42 4 0 170 c0 93 2 169 5 169
3 0 5 -79 5 -175z m-712 -168 l237 -2 -242 -3 -243 -2 2 78 2 77 3 -72 4 -73
237 -3z"/>
</g>
</svg>
