<?xml version="1.0" encoding="utf-8"?>
<!-- Generator: Adobe Illustrator 19.1.0, SVG Export Plug-In . SVG Version: 6.00 Build 0)  -->
<svg version="1.1" xmlns="http://www.w3.org/2000/svg" xmlns:xlink="http://www.w3.org/1999/xlink" x="0px" y="0px"
	 viewBox="0 0 1021.81 98.814" enable-background="new 0 0 1021.81 98.814" xml:space="preserve">
<g id="Calque_2" display="none">
	<rect x="-91.857" y="-379.593" display="inline" fill="#292027" width="1210" height="858"/>
</g>
<g id="Layer_1">
	<path fill="#FFFFFF" d="M16.997,24.913c16.623,0.297,19.61,0.195,35.64,0v4.276c-14.034-0.394-15.932-0.394-15.932-0.394
		s0.203,3.687,0.394,44.899h-4.572c0.5-25.483,0.398-44.899,0.398-44.899s-2.289,0.102-15.928,0.394V24.913z M83.96,24.913
		L83.765,47.71h26.882l-0.204-22.797h4.382c-0.593,23.492,0,48.781,0,48.781h-4.382l0.204-22.301H83.765l0.195,22.301h-4.382
		c0,0,0.703-25.288,0-48.781H83.96z M637.849,33.277c-3.678-3.292-8.559-5.178-15.428-5.178c-11.848,0-20.208,9.161-20.208,20.916
		V49.1c0,12.644,7.068,21.602,20.115,21.602c14.924,0,19.305-11.652,19.305-18.513c0,0-6.271,0-12.945,0.306l-0.495-4.089h17.42
		v3.39c0,10.352-6.466,22.806-23.191,22.806c-15.327,0-24.488-11.568-24.488-25.302V49.1c0-13.14,9.551-24.886,24.691-24.886
		c7.36,0,12.936,2.191,17.517,5.674L637.849,33.277z M691.38,24.617c9.555,24.399,20.708,49.077,20.708,49.077h-4.881l-6.475-15.517
		h-22.788l-6.572,15.517h-4.678c0,0,10.945-24.195,20.805-49.077H691.38z M699.639,54.481l-10.352-25.001l-10.059,25.001H699.639z
		 M927.99,51.392c0,0,6.271,9.258,15.628,22.301h-5.483c-5.763-9.068-8.949-14.237-14.225-21.899L927.99,51.392z M513.542,51.897
		l-18.911-26.984h4.979l16.026,23.39l16.021-23.39h4.788l-18.92,26.984c0,5.864,0,13.432,0.195,21.797h-4.483
		C513.445,65.727,513.542,58.363,513.542,51.897 M349.574,24.913c0,0-0.593,19.216,0.102,48.781h-4.585
		c0.102-27.179,0.398-37.026,0.398-42.412l-0.19,0.292l-16.132,22.208h-2.686l-16.034-22.208c0,2.89,0.212,10.458,0.398,42.119
		h-4.568c0.686-29.564,0.085-48.781,0.085-48.781h3.983l17.627,24.102l17.424-24.102H349.574z M798.339,24.913
		c0,0-0.504,20.805-0.106,45.094c0.106,0,12.949,0,25.094-0.5l-0.407,4.186h-29.068c0.504-25.483,0.504-38.924,0.102-48.781H798.339
		z M435.223,24.913c16.632,0.297,19.615,0.195,35.644,0v4.276c-14.038-0.394-15.932-0.394-15.932-0.394s0.207,3.687,0.402,44.899
		h-4.58c0.496-25.483,0.402-44.899,0.402-44.899s-2.301,0.102-15.936,0.394V24.913z M880.633,24.913l-0.297,4.382
		c-12.343-0.597-26.585-0.695-26.585-0.695V47.71c0,0,13.737,0.195,22.805,0l-0.199,3.979c-7.275-0.296-22.606-0.296-22.606-0.296
		v18.615c0,0,17.525,0,26.678-0.593l0.203,4.28h-31.162c0,0,0.695-25.288,0-48.781H880.633z M908.477,24.913h14.331
		c10.759,0,18.322,4.568,18.322,13.937v0.199c0,9.856-9.457,12.932-19.216,12.932h-9.161l0.195,21.712h-4.47
		C909.277,42.735,908.477,24.913,908.477,24.913 M922.117,48.303c9.055,0,14.932-2.788,14.932-9.254v-0.199
		c0-7.674-5.775-10.25-14.542-10.25h-9.755v19.704H922.117z M744.606,24.913c0,0-0.5,20.805-0.098,45.094
		c0.098,0,12.945,0,25.085-0.5l-0.398,4.186h-29.072c0.5-25.483,0.5-38.924,0.106-48.781H744.606z M981.914,51.897l-18.92-26.984
		h4.983l16.03,23.39l16.026-23.39h4.78l-18.916,26.984c0,5.864,0,13.432,0.203,21.797h-4.483
		C981.812,65.727,981.914,58.363,981.914,51.897 M380.104,24.913h14.335c10.754,0,18.322,4.568,18.322,13.937v0.199
		c0,9.856-9.466,12.932-19.225,12.932h-9.153l0.199,21.712h-4.479C380.905,42.735,380.104,24.913,380.104,24.913 M393.744,48.303
		c9.059,0,14.941-2.788,14.941-9.254v-0.199c0-7.674-5.78-10.25-14.551-10.25h-9.75v19.704H393.744z M276.039,24.913l-0.297,4.382
		c-12.348-0.597-26.585-0.695-26.585-0.695V47.71c0,0,13.737,0.195,22.788,0l-0.187,3.979c-7.271-0.296-22.602-0.296-22.602-0.296
		v18.615c0,0,17.517,0,26.683-0.593l0.199,4.28h-31.162c0,0,0.695-25.288,0-48.781H276.039z M178.507,24.913l-0.301,4.382
		c-12.348-0.597-26.581-0.695-26.581-0.695V47.71c0,0,13.742,0.195,22.801,0l-0.199,3.979c-7.276-0.296-22.602-0.296-22.602-0.296
		v18.615c0,0,17.522,0,26.683-0.593l0.199,4.28h-31.166c0,0,0.695-25.288,0-48.781H178.507z"/>
</g>
</svg>
