<?xml version="1.0" encoding="utf-8"?>
<!-- Generator: Adobe Illustrator 19.1.0, SVG Export Plug-In . SVG Version: 6.00 Build 0)  -->
<svg version="1.1" xmlns="http://www.w3.org/2000/svg" xmlns:xlink="http://www.w3.org/1999/xlink" x="0px" y="0px"
	 viewBox="0 0 391.18 391.18" enable-background="new 0 0 391.18 391.18" xml:space="preserve">
<g id="Calque_2">
</g>
<g id="Layer_1">
	<g>
		<path fill="#FFFFFF" d="M10.33,304.319c0.094-5.209,0.062-6.145,0-11.166h1.216c-0.125,4.398-0.125,5.053-0.125,5.053
			s1.279-0.062,14.192-0.125v1.31c-7.985-0.156-14.192-0.125-14.192-0.125s0,0.78,0.094,5.053H10.33z"/>
	</g>
	<g>
		<path fill="#FFFFFF" d="M10.33,276.953l7.205,0.062v-8.546l-7.205,0.062v-1.248c7.361,0.187,15.284,0,15.284,0v1.248l-6.956-0.062
			v8.546l6.956-0.062v1.248c0,0-7.923-0.218-15.284,0V276.953z"/>
	</g>
	<g>
		<path fill="#FFFFFF" d="M10.33,241.567l1.248,0.094c-0.187,3.868-0.156,8.39-0.156,8.39h6.113c0,0-0.031-4.367-0.094-7.205
			l1.279,0.062c-0.094,2.277-0.094,7.143-0.094,7.143h5.926c0,0,0.031-5.552-0.156-8.422l1.217-0.062v9.701
			c0,0-7.923-0.218-15.284,0V241.567z"/>
	</g>
	<path fill="#FFFFFF" d="M321.428,372.858l-5.59-7.89h1.368l4.775,6.987l4.775-6.987h1.31l-5.59,7.89c0,1.718,0,3.93,0.058,6.376
		h-1.194C321.399,376.905,321.428,374.75,321.428,372.858L321.428,372.858z M290.056,364.968c4.862,0.087,5.736,0.058,10.423,0
		v1.136c-4.105-0.117-4.716-0.117-4.716-0.117s0.029,5.823,0.146,13.247h-1.252c0.146-7.453,0.117-13.247,0.117-13.247
		s-0.728,0-4.717,0.087V364.968z M249.917,364.968c0,0-0.175,5.619,0.029,14.266h-1.223c0.029-7.948,0.116-10.889,0.116-12.461
		l-0.058,0.087l-4.716,6.434h-0.786l-4.687-6.434c0,0.844,0.058,3.115,0.117,12.373h-1.223c0.204-8.647,0.029-14.266,0.029-14.266
		h1.048l5.153,7.046l5.095-7.046H249.917z M220.711,364.968l-0.087,1.165c-3.61-0.175-7.832-0.146-7.832-0.146v5.706
		c0,0,4.076-0.029,6.725-0.087l-0.058,1.194c-2.125-0.088-6.667-0.088-6.667-0.088v5.532c0,0,5.182,0.029,7.861-0.146l0.058,1.135
		h-9.054c0,0,0.204-7.395,0-14.266H220.711z M266.342,364.968h4.076c3.144,0,5.299,1.339,5.299,4.076v0.058
		c0,2.882-2.591,3.785-5.561,3.785h-2.679l0.058,6.347h-1.194C266.575,370.18,266.342,364.968,266.342,364.968L266.342,364.968z
		 M270.214,371.81c2.649,0,4.338-0.699,4.338-2.708v-0.058c0-2.242-1.66-3.028-4.222-3.028h-2.853v5.794H270.214z"/>
	<path fill="#FFFFFF" d="M380.212,79.984c0.967-1.084,1.67-2.52,1.67-4.542c0-3.487-2.872-6.124-6.329-6.124h-0.029
		c-3.721,0-6.534,2.256-6.534,6.095c0,4.395,3.34,5.714,5.743,5.714c0,0,0-1.875-0.088-3.839l1.084-0.147v5.069h-0.996
		c-3.047,0-6.71-1.846-6.71-6.769c0-4.512,3.399-7.208,7.443-7.208h0.059c3.868,0,7.325,2.813,7.325,7.267
		c0,2.168-0.645,3.809-1.67,5.157L380.212,79.984z M382.733,103.839c-7.179,2.813-14.446,6.095-14.446,6.095v-1.319l4.659-1.846
		v-6.915l-4.659-1.905v-1.26c0,0,7.12,3.223,14.446,6.124V103.839z M373.942,106.418l7.472-3.135l-7.472-3.047V106.418z
		 M382.645,127.49c0,0-6.241-0.147-13.391-0.029c0,0.029,0,3.663,0.088,7.501l-1.055-0.117v-8.556
		c7.501,0.147,11.457,0.147,14.358,0.029V127.49z M374.85,204.176c0,0-2.93,1.905-6.564,4.659v-1.553
		c2.96-1.934,3.018-1.817,6.446-4.278L374.85,204.176z M382.645,150.58c0,0-6.241-0.147-13.391-0.029c0,0.029,0,3.663,0.088,7.501
		l-1.055-0.117v-8.556c7.501,0.147,11.457,0.147,14.358,0.029V150.58z M374.704,227.061l7.941-5.626v1.377l-7.033,4.806l7.033,4.806
		v1.319l-7.941-5.626c-1.729,0-3.956,0-6.417,0.059v-1.201C370.631,227.032,372.799,227.061,374.704,227.061L374.704,227.061z
		 M382.645,182.581l-1.172-0.088c0.176-3.633,0.147-7.882,0.147-7.882h-5.743c0,0,0.029,4.102,0.088,6.769l-1.201-0.059
		c0.088-2.139,0.088-6.71,0.088-6.71h-5.567c0,0-0.029,5.216,0.147,7.911l-1.143,0.059v-9.113c0,0,7.443,0.205,14.358,0V182.581z
		 M382.645,198.404v4.102c0,3.165-1.348,5.333-4.102,5.333h-0.058c-2.901,0-3.809-2.608-3.809-5.597v-2.696l-6.388,0.059v-1.201
		C377.4,198.638,382.645,198.404,382.645,198.404L382.645,198.404z M375.759,202.301c0,2.666,0.703,4.366,2.725,4.366h0.058
		c2.256,0,3.047-1.67,3.047-4.249v-2.872h-5.831V202.301z"/>
	<path fill="#FFFFFF" d="M380.212,79.984c0.967-1.084,1.67-2.52,1.67-4.542c0-3.487-2.872-6.124-6.329-6.124h-0.029
		c-3.721,0-6.534,2.256-6.534,6.095c0,4.395,3.34,5.714,5.743,5.714c0,0,0-1.875-0.088-3.839l1.084-0.147v5.069h-0.996
		c-3.047,0-6.71-1.846-6.71-6.769c0-4.512,3.399-7.208,7.443-7.208h0.059c3.868,0,7.325,2.813,7.325,7.267
		c0,2.168-0.645,3.809-1.67,5.157L380.212,79.984z M382.733,103.839c-7.179,2.813-14.446,6.095-14.446,6.095v-1.319l4.659-1.846
		v-6.915l-4.659-1.905v-1.26c0,0,7.12,3.223,14.446,6.124V103.839z M373.942,106.418l7.472-3.135l-7.472-3.047V106.418z
		 M382.645,127.49c0,0-6.241-0.147-13.391-0.029c0,0.029,0,3.663,0.088,7.501l-1.055-0.117v-8.556
		c7.501,0.147,11.457,0.147,14.358,0.029V127.49z M374.85,204.176c0,0-2.93,1.905-6.564,4.659v-1.553
		c2.96-1.934,3.018-1.817,6.446-4.278L374.85,204.176z M382.645,150.58c0,0-6.241-0.147-13.391-0.029c0,0.029,0,3.663,0.088,7.501
		l-1.055-0.117v-8.556c7.501,0.147,11.457,0.147,14.358,0.029V150.58z M374.704,227.061l7.941-5.626v1.377l-7.033,4.806l7.033,4.806
		v1.319l-7.941-5.626c-1.729,0-3.956,0-6.417,0.059v-1.201C370.631,227.032,372.799,227.061,374.704,227.061L374.704,227.061z
		 M382.645,182.581l-1.172-0.088c0.176-3.633,0.147-7.882,0.147-7.882h-5.743c0,0,0.029,4.102,0.088,6.769l-1.201-0.059
		c0.088-2.139,0.088-6.71,0.088-6.71h-5.567c0,0-0.029,5.216,0.147,7.911l-1.143,0.059v-9.113c0,0,7.443,0.205,14.358,0V182.581z
		 M382.645,198.404v4.102c0,3.165-1.348,5.333-4.102,5.333h-0.058c-2.901,0-3.809-2.608-3.809-5.597v-2.696l-6.388,0.059v-1.201
		C377.4,198.638,382.645,198.404,382.645,198.404L382.645,198.404z M375.759,202.301c0,2.666,0.703,4.366,2.725,4.366h0.058
		c2.256,0,3.047-1.67,3.047-4.249v-2.872h-5.831V202.301z"/>
	<polygon fill="#FFFFFF" points="195.406,372.601 16.472,372.601 16.472,319.734 17.472,319.734 17.472,371.601 195.406,371.601 	
		"/>
	<polygon fill="#FFFFFF" points="374.339,372.601 339.954,372.601 339.954,371.601 373.339,371.601 373.339,246.418 
		374.339,246.418 	"/>
	<polygon fill="#FFFFFF" points="17.472,224.734 16.472,224.734 16.472,14.734 374.339,14.734 374.339,49.949 373.339,49.949 
		373.339,15.734 17.472,15.734 	"/>
</g>
</svg>
